<?xml version="1.0" ?><!-- Uploaded to: SVG Repo, www.svgrepo.com, Generator: SVG Repo Mixer Tools -->
<svg fill="#000000" width="800px" height="800px" viewBox="0 0 16 16" data-name="Layer 1" id="Layer_1" xmlns="http://www.w3.org/2000/svg"><title/><path d="M8,1A7,7,0,1,1,1,8,7.008,7.008,0,0,1,8,1M8,0a8,8,0,1,0,8,8A8,8,0,0,0,8,0Z"/><polygon points="11.476 5.002 10.476 5.002 10.476 4.002 9.476 4.002 9.476 5.002 8.476 5.002 8.476 6.002 9.476 6.002 9.476 7.002 10.476 7.002 10.476 6.002 11.476 6.002 11.476 5.002"/><polygon points="7.476 5.002 6.476 5.002 6.476 4.002 5.476 4.002 5.476 5.002 4.476 5.002 4.476 6.002 5.476 6.002 5.476 7.002 6.476 7.002 6.476 6.002 7.476 6.002 7.476 5.002"/><path d="M2.976,9v1H7.711v.426a2.633,2.633,0,1,0,5.265,0V9Zm5.735,1.426V10h1.483v2.043A1.629,1.629,0,0,1,8.711,10.426Zm3.265,0a1.628,1.628,0,0,1-1.482,1.617V10h1.482Z"/></svg>