<?xml version="1.0" encoding="iso-8859-1"?>
<!-- Uploaded to: SVG Repo, www.svgrepo.com, Generator: SVG Repo Mixer Tools -->
<svg fill="#000000" height="800px" width="800px" version="1.1" id="Layer_1" xmlns="http://www.w3.org/2000/svg" xmlns:xlink="http://www.w3.org/1999/xlink" 
	 viewBox="0 0 480 480" xml:space="preserve">
<g>
	<g>
		<path d="M456,312h-48v-24h24c4.424,0,8-3.576,8-8v-8c0-22.056-17.944-40-40-40h-64.336C313.8,232,296,249.8,296,271.664V280
			c0,4.424,3.576,8,8,8h24v24h-80v-84.952c0-25.192-17.312-47.872-40-55.912v-36.048c6.24-1.776,11.576-6.032,14.68-11.96
			c4.152-7.944,3.56-17.456-1.552-24.816L208,79.408v-2.8C222.104,70.416,232,56.36,232,40V8c0-4.424-3.584-8-8-8H120
			C97.944,0,80,17.944,80,40v25.472C70.712,68.784,64,77.584,64,88v40c0,10.416,6.712,19.216,16,22.528v17.576
			c-21.144,1.04-40,21.008-40,42.944V312H24c-13.232,0-24,10.768-24,24v8c0,13.232,10.768,24,24,24h8v104c0,4.424,3.584,8,8,8h400
			c4.424,0,8-3.576,8-8V368h8c13.232,0,24-10.768,24-24v-8C480,322.768,469.232,312,456,312z M312,272v-0.336
			C312,258.616,322.616,248,335.664,248H400c13.232,0,24,10.768,24,24h-20.688l-4.272-4.28c-7.552-7.552-17.6-11.72-28.296-11.72
			h-5.488c-10.688,0-20.736,4.168-28.288,11.72l-4.28,4.28H312z M392,283.312V312h-48v-28.688l4.28-4.28
			c4.536-4.536,10.56-7.032,16.976-7.032h5.488c6.424,0,12.448,2.496,16.976,7.032L392,283.312z M208.496,115.704
			c-1.4,2.696-4.048,4.296-7.088,4.296H200c-4.416,0-8,3.576-8,8v40h-1.704H96v-16c13.232,0,24-10.768,24-24V80h72v1.912
			c0,1.632,0.496,3.232,1.432,4.568l14.552,20.96C209.712,109.936,209.904,113.024,208.496,115.704z M96,40
			c0-13.232,10.768-24,24-24h96v24c0,13.232-10.768,24-24,24h-80H96V40z M80,88c0-4.416,3.592-8,8-8h16v48c0,4.416-3.592,8-8,8h-8
			c-4.408,0-8-3.584-8-8V88z M56,211.048C56,197.4,68.736,184,81.72,184H88h102.296C212.12,184,232,204.512,232,227.048V312H104v-72
			c0-4.424-3.584-8-8-8s-8,3.576-8,8v72H56V211.048z M432,464H48v-96h384V464z M464,344c0,4.416-3.584,8-8,8h-16H40H24
			c-4.408,0-8-3.584-8-8v-8c0-4.416,3.592-8,8-8h24h192h96h64h56c4.416,0,8,3.584,8,8V344z"/>
	</g>
</g>
<g>
	<g>
		<path d="M375.856,2.192c-42.008,0-76.176,34.168-76.176,76.176s34.168,76.184,76.176,76.184s76.176-34.176,76.176-76.184
			S417.864,2.192,375.856,2.192z M375.856,138.544c-33.176,0-60.176-27-60.176-60.184c0-33.176,27-60.176,60.176-60.176
			c33.176,0,60.176,27,60.176,60.176C436.032,111.544,409.032,138.544,375.856,138.544z"/>
	</g>
</g>
<g>
	<g>
		<path d="M376,64c-4.424,0-8,3.576-8,8v40c0,4.424,3.576,8,8,8s8-3.576,8-8V72C384,67.576,380.424,64,376,64z"/>
	</g>
</g>
<g>
	<g>
		<circle cx="375.832" cy="48.16" r="8.168"/>
	</g>
</g>
<g>
	<g>
		<circle cx="199.832" cy="256.16" r="8.168"/>
	</g>
</g>
<g>
	<g>
		<circle cx="199.832" cy="224.16" r="8.168"/>
	</g>
</g>
<g>
	<g>
		<circle cx="199.832" cy="288.16" r="8.168"/>
	</g>
</g>
<g>
	<g>
		<circle cx="151.832" cy="256.16" r="8.168"/>
	</g>
</g>
<g>
	<g>
		<circle cx="151.832" cy="224.16" r="8.168"/>
	</g>
</g>
<g>
	<g>
		<circle cx="151.832" cy="288.16" r="8.168"/>
	</g>
</g>
<g>
	<g>
		<path d="M120,384H72c-4.416,0-8,3.576-8,8s3.584,8,8,8h48c4.416,0,8-3.576,8-8S124.416,384,120,384z"/>
	</g>
</g>
<g>
	<g>
		<path d="M160,384h-8c-4.416,0-8,3.576-8,8s3.584,8,8,8h8c4.416,0,8-3.576,8-8S164.416,384,160,384z"/>
	</g>
</g>
<g>
	<g>
		<path d="M232,432h-48c-4.416,0-8,3.576-8,8s3.584,8,8,8h48c4.416,0,8-3.576,8-8S236.416,432,232,432z"/>
	</g>
</g>
<g>
	<g>
		<path d="M272,432h-8c-4.424,0-8,3.576-8,8s3.576,8,8,8h8c4.424,0,8-3.576,8-8S276.424,432,272,432z"/>
	</g>
</g>
<g>
	<g>
		<path d="M360,408h-48c-4.424,0-8,3.576-8,8s3.576,8,8,8h48c4.424,0,8-3.576,8-8S364.424,408,360,408z"/>
	</g>
</g>
<g>
	<g>
		<path d="M400,408h-8c-4.424,0-8,3.576-8,8s3.576,8,8,8h8c4.424,0,8-3.576,8-8S404.424,408,400,408z"/>
	</g>
</g>
</svg>