<?xml version="1.0" ?><!-- Uploaded to: SVG Repo, www.svgrepo.com, Generator: SVG Repo Mixer Tools -->
<svg width="800px" height="800px" viewBox="0 0 100 100" data-name="Layer 1" id="Layer_1" xmlns="http://www.w3.org/2000/svg"><defs><style>
      .cls-1 {
        fill: none;
        stroke: #231f20;
        stroke-linejoin: round;
        stroke-width: 2px;
      }

      .cls-2 {
        fill: #231f20;
      }
    </style></defs><path class="cls-2" d="M66.78,33.69c3.1-.21,3.44-.6,3.23-3.7,.21,3.1,.6,3.44,3.7,3.23-3.1,.21-3.44,.6-3.23,3.7-.21-3.1-.6-3.44-3.7-3.23Z"/><path class="cls-2" d="M69.92,24.2c5.65-.39,6.27-1.09,5.88-6.74,.39,5.65,1.09,6.27,6.74,5.88-5.65,.39-6.27,1.09-5.88,6.74-.39-5.65-1.09-6.27-6.74-5.88Z"/><path class="cls-2" d="M22.39,54.78c12.84-.88,14.25-2.49,13.37-15.33,.88,12.84,2.49,14.25,15.33,13.37-12.84,.88-14.25,2.49-13.37,15.33-.88-12.84-2.49-14.25-15.33-13.37Z"/><path class="cls-1" d="M73.55,21.67v51.63H30.49c-1.6,0-3.05,.57-4.1,1.49-.69,.61-1.2,1.36-1.47,2.2-.15-.37-.23-.77-.23-1.19V21.67c0-2.03,1.87-3.67,4.18-3.67h40.51c2.3,0,4.17,1.65,4.17,3.67Z"/><path class="cls-1" d="M73.55,73.3v10.2H30.49c-3.2,0-5.8-2.29-5.8-5.1,0-.49,.08-.96,.23-1.41,.27-.84,.78-1.6,1.47-2.2,1.04-.92,2.5-1.49,4.1-1.49h43.06Z"/><line class="cls-1" x1="59.16" x2="73.55" y1="76.63" y2="76.63"/><line class="cls-1" x1="53.57" x2="73.55" y1="80.31" y2="80.31"/><line class="cls-1" x1="32.79" x2="32.79" y1="17.68" y2="73.3"/></svg>