<?xml version="1.0" ?>
<!-- Uploaded to: SVG Repo, www.svgrepo.com, Generator: SVG Repo Mixer Tools -->
<svg fill="#000000" width="800px" height="800px" viewBox="0 0 500 500" id="Layer_1" version="1.1" xml:space="preserve" xmlns="http://www.w3.org/2000/svg" xmlns:xlink="http://www.w3.org/1999/xlink">
<g id="car">
<g>
<g>
<g>
<path d="M57.33,368.57H28.05c-6.86,0-12.44-5.58-12.44-12.44v-81c0-6.86,5.58-12.44,12.44-12.44h29.29V368.57z M28.05,268.69      c-3.55,0-6.44,2.89-6.44,6.44v81c0,3.55,2.89,6.44,6.44,6.44h23.29v-93.88H28.05z"/>
</g>
<g>
<g>
<g>
<path d="M68.89,350.25H51.33v-44.3h17.56c4.93,0,8.93,4.01,8.93,8.93v26.44C77.82,346.24,73.82,350.25,68.89,350.25z         M57.33,344.25h11.56c1.62,0,2.93-1.32,2.93-2.93v-26.44c0-1.62-1.32-2.93-2.93-2.93H57.33V344.25z"/>
</g>
<g>
<path d="M480.68,350.25c-12.21,0-22.15-9.94-22.15-22.15c0-10.77,7.7-19.94,18.32-21.8l2.49-0.44l0.85,2.38        c2.79,7.81,4.21,16,4.21,24.32v17.54l-3.08,0.12C481.1,350.24,480.89,350.25,480.68,350.25z M475.4,312.84        c-6.43,2.21-10.87,8.27-10.87,15.25c0,8.13,6.04,14.88,13.87,15.99v-11.52C478.4,325.84,477.39,319.22,475.4,312.84z"/>
</g>
</g>
<g>
<g>
<g>
<g>
<path d="M219.77,260.11H81.69l0.33-3.3c1.9-19,10.76-36.56,24.94-49.47c14.27-12.99,32.77-20.15,52.09-20.15h60.72V260.11z           M88.4,254.11h125.38V193.2h-54.72C123.32,193.2,93.51,219.16,88.4,254.11z"/>
</g>
</g>
<g>
<g>
<path d="M367.03,260.11H229.14V187.2h65.17c39.18,0,71.07,30.66,72.6,69.79L367.03,260.11z M235.14,254.11h125.58          c-2.92-34.4-31.51-60.91-66.41-60.91h-59.17V254.11z"/>
</g>
</g>
</g>
<g>
<path d="M468.23,384.78h-38.19v-3c0-24.55-19.97-44.52-44.52-44.52S341,357.23,341,381.78v3H194.73v-3        c0-24.55-19.97-44.52-44.52-44.52s-44.52,19.97-44.52,44.52v3H67.5c-8.92,0-16.17-7.25-16.17-16.17V269.4        c0-54.07,43.99-98.07,98.06-98.07h153.16c49.72,0,90.36,39.65,91.95,89h22.05c17.16,0,34.39,7.73,47.28,21.21        c13.26,13.87,20.56,31.99,20.56,51.03v36.05C484.4,377.53,477.14,384.78,468.23,384.78z M435.95,378.78h32.28        c5.61,0,10.17-4.56,10.17-10.17v-36.05c0-17.49-6.71-34.14-18.9-46.88c-11.76-12.3-27.41-19.35-42.94-19.35h-28v-3        c0-47.42-38.58-86-86-86H149.4c-50.76,0-92.06,41.3-92.06,92.07v99.22c0,5.61,4.56,10.17,10.17,10.17h32.28        c1.56-26.47,23.58-47.52,50.43-47.52s48.88,21.05,50.43,47.52h134.44c1.56-26.47,23.58-47.52,50.43-47.52        S434.39,352.31,435.95,378.78z"/>
</g>
</g>
</g>
</g>
<g>
<g>
<path d="M385.52,432.3c-27.86,0-50.52-22.66-50.52-50.52s22.66-50.52,50.52-50.52s50.52,22.66,50.52,50.52      S413.37,432.3,385.52,432.3z M385.52,337.26c-24.55,0-44.52,19.97-44.52,44.52s19.97,44.52,44.52,44.52s44.52-19.97,44.52-44.52      S410.07,337.26,385.52,337.26z M385.52,411.55c-16.42,0-29.77-13.36-29.77-29.77s13.35-29.77,29.77-29.77      s29.77,13.35,29.77,29.77S401.93,411.55,385.52,411.55z M385.52,358.01c-13.11,0-23.77,10.66-23.77,23.77      c0,13.11,10.66,23.77,23.77,23.77c13.11,0,23.77-10.66,23.77-23.77C409.29,368.67,398.62,358.01,385.52,358.01z"/>
</g>
<g>
<path d="M150.21,432.3c-27.86,0-50.52-22.66-50.52-50.52s22.66-50.52,50.52-50.52s50.52,22.66,50.52,50.52      S178.07,432.3,150.21,432.3z M150.21,337.26c-24.55,0-44.52,19.97-44.52,44.52s19.97,44.52,44.52,44.52s44.52-19.97,44.52-44.52      S174.76,337.26,150.21,337.26z M150.21,411.55c-16.42,0-29.77-13.36-29.77-29.77s13.36-29.77,29.77-29.77      s29.77,13.35,29.77,29.77S166.63,411.55,150.21,411.55z M150.21,358.01c-13.11,0-23.77,10.66-23.77,23.77      c0,13.11,10.66,23.77,23.77,23.77s23.77-10.66,23.77-23.77C173.98,368.67,163.32,358.01,150.21,358.01z"/>
</g>
</g>
</g>
<g>
<g>
<g>
<path d="M284.74,177.33H169.28c-17.28,0-31.33-14.06-31.33-31.33s14.06-31.33,31.33-31.33h115.46      c17.28,0,31.33,14.06,31.33,31.33S302.02,177.33,284.74,177.33z M169.28,120.67c-13.97,0-25.33,11.36-25.33,25.33      s11.36,25.33,25.33,25.33h115.46c13.97,0,25.33-11.36,25.33-25.33s-11.36-25.33-25.33-25.33H169.28z"/>
</g>
<g>
<path d="M295.86,120.67h-137.7V67.7h137.7V120.67z M164.16,114.67h125.7V73.7h-125.7V114.67z"/>
</g>
</g>
</g>
</g>
</svg>